<svg width="212" height="34" viewBox="0 0 212 34" fill="none" xmlns="http://www.w3.org/2000/svg">
<path d="M65.3125 26H62.1602V14.5859H62.0664L57.4727 25.8359H55.2461L50.6523 14.5859H50.5586V26H47.4062V9.08984H51.5078L56.3125 21.0781H56.4062L61.2109 9.08984H65.3125V26ZM73.4688 15.6992C72.7266 15.6992 72.1055 15.9531 71.6055 16.4609C71.1133 16.9688 70.8359 17.6172 70.7734 18.4062H76.1055C76.0664 17.6016 75.8047 16.9492 75.3203 16.4492C74.8438 15.9492 74.2266 15.6992 73.4688 15.6992ZM76.1523 22.1562H79.293C79.1055 23.3906 78.4883 24.3867 77.4414 25.1445C76.4023 25.8945 75.1094 26.2695 73.5625 26.2695C71.6328 26.2695 70.1172 25.6914 69.0156 24.5352C67.9219 23.3789 67.375 21.793 67.375 19.7773C67.375 17.7695 67.9219 16.168 69.0156 14.9727C70.1094 13.7695 71.582 13.168 73.4336 13.168C75.2539 13.168 76.7031 13.7383 77.7812 14.8789C78.8594 16.0195 79.3984 17.5469 79.3984 19.4609V20.5039H70.7383V20.7148C70.7383 21.6133 71 22.3438 71.5234 22.9062C72.0547 23.4609 72.7539 23.7383 73.6211 23.7383C74.2461 23.7383 74.7852 23.5977 75.2383 23.3164C75.6914 23.0273 75.9961 22.6406 76.1523 22.1562ZM81.168 26V13.4375H84.4727V15.6992H84.543C84.7617 14.9023 85.1289 14.293 85.6445 13.8711C86.1602 13.4492 86.7891 13.2383 87.5312 13.2383C87.8906 13.2383 88.2148 13.2812 88.5039 13.3672V16.3789C88.1836 16.2461 87.7695 16.1797 87.2617 16.1797C86.418 16.1797 85.7617 16.4258 85.293 16.918C84.8242 17.4102 84.5898 18.0977 84.5898 18.9805V26H81.168ZM100.902 18.1133H97.7266C97.625 17.4336 97.3555 16.8867 96.918 16.4727C96.4883 16.0586 95.9297 15.8516 95.2422 15.8516C94.3906 15.8516 93.7188 16.1953 93.2266 16.8828C92.7422 17.5625 92.5 18.5039 92.5 19.707C92.5 20.9336 92.7422 21.8867 93.2266 22.5664C93.7188 23.2461 94.3945 23.5859 95.2539 23.5859C95.9336 23.5859 96.4883 23.3945 96.918 23.0117C97.3477 22.6211 97.6172 22.082 97.7266 21.3945H100.914C100.828 22.8789 100.27 24.0625 99.2383 24.9453C98.207 25.8281 96.8672 26.2695 95.2188 26.2695C93.3125 26.2695 91.8047 25.6875 90.6953 24.5234C89.5859 23.3516 89.0312 21.7461 89.0312 19.707C89.0312 17.6992 89.5859 16.1094 90.6953 14.9375C91.8125 13.7578 93.3125 13.168 95.1953 13.168C96.8672 13.168 98.2148 13.6289 99.2383 14.5508C100.27 15.4727 100.824 16.6602 100.902 18.1133ZM114.168 13.4375V26H110.863V23.7383H110.793C110.137 25.4023 108.883 26.2344 107.031 26.2344C105.656 26.2344 104.559 25.8164 103.738 24.9805C102.918 24.1367 102.508 22.9883 102.508 21.5352V13.4375H105.93V20.8203C105.93 21.6562 106.129 22.293 106.527 22.7305C106.934 23.168 107.516 23.3867 108.273 23.3867C109.031 23.3867 109.633 23.1367 110.078 22.6367C110.523 22.1367 110.746 21.4688 110.746 20.6328V13.4375H114.168ZM116.395 26V13.4375H119.699V15.6992H119.77C119.988 14.9023 120.355 14.293 120.871 13.8711C121.387 13.4492 122.016 13.2383 122.758 13.2383C123.117 13.2383 123.441 13.2812 123.73 13.3672V16.3789C123.41 16.2461 122.996 16.1797 122.488 16.1797C121.645 16.1797 120.988 16.4258 120.52 16.918C120.051 17.4102 119.816 18.0977 119.816 18.9805V26H116.395ZM126.742 30.6523C125.992 30.6523 125.562 30.6406 125.453 30.6172V27.9805C125.523 27.9961 125.809 28.0039 126.309 28.0039C126.941 28.0039 127.422 27.8945 127.75 27.6758C128.078 27.4648 128.301 27.1094 128.418 26.6094C128.418 26.6016 128.438 26.5039 128.477 26.3164C128.516 26.1289 128.531 26.0273 128.523 26.0117L124.152 13.4375H127.914L130.586 23.2578H130.645L133.316 13.4375H136.926L132.602 26.2812C132.062 27.8906 131.352 29.0195 130.469 29.668C129.594 30.3242 128.352 30.6523 126.742 30.6523ZM150.637 26H149.031V10.543H143.453V9.08984H156.227V10.543H150.637V26ZM155.453 26V13.8125H156.918V15.9805H156.953C157.18 15.2383 157.562 14.6602 158.102 14.2461C158.641 13.8242 159.285 13.6133 160.035 13.6133C160.332 13.6133 160.652 13.6562 160.996 13.7422V15.2656C160.746 15.1484 160.359 15.0898 159.836 15.0898C158.977 15.0898 158.289 15.3945 157.773 16.0039C157.258 16.6133 157 17.4141 157 18.4062V26H155.453ZM166.223 24.8633C167.293 24.8633 168.195 24.5312 168.93 23.8672C169.664 23.2031 170.031 22.3867 170.031 21.418V20.0703L166.422 20.3164C165.461 20.3789 164.723 20.6133 164.207 21.0195C163.691 21.418 163.434 21.9531 163.434 22.625C163.434 23.2891 163.691 23.8281 164.207 24.2422C164.723 24.6562 165.395 24.8633 166.223 24.8633ZM165.906 26.1992C164.703 26.1992 163.727 25.8711 162.977 25.2148C162.234 24.5508 161.863 23.6875 161.863 22.625C161.863 21.5781 162.238 20.75 162.988 20.1406C163.746 19.5312 164.828 19.1797 166.234 19.0859L170.031 18.8516V17.7969C170.031 16.9141 169.766 16.2266 169.234 15.7344C168.703 15.2344 167.965 14.9844 167.02 14.9844C166.129 14.9844 165.402 15.1914 164.84 15.6055C164.285 16.0195 163.941 16.5977 163.809 17.3398H162.309C162.395 16.2305 162.863 15.332 163.715 14.6445C164.574 13.957 165.688 13.6133 167.055 13.6133C168.445 13.6133 169.547 13.9766 170.359 14.7031C171.172 15.4297 171.578 16.4141 171.578 17.6562V26H170.102V23.6797H170.066C169.73 24.4375 169.18 25.0469 168.414 25.5078C167.648 25.9688 166.812 26.1992 165.906 26.1992ZM183.742 13.8125L179.219 26H177.566L173.031 13.8125H174.672L178.375 24.3711H178.41L182.125 13.8125H183.742ZM189.824 14.9727C188.738 14.9727 187.844 15.3516 187.141 16.1094C186.445 16.8594 186.066 17.8398 186.004 19.0508H193.527C193.512 17.8398 193.164 16.8594 192.484 16.1094C191.805 15.3516 190.918 14.9727 189.824 14.9727ZM193.434 22.543H194.969C194.781 23.6133 194.227 24.4922 193.305 25.1797C192.391 25.8594 191.27 26.1992 189.941 26.1992C188.23 26.1992 186.879 25.6406 185.887 24.5234C184.895 23.3984 184.398 21.8711 184.398 19.9414C184.398 18.043 184.895 16.5156 185.887 15.3594C186.879 14.1953 188.199 13.6133 189.848 13.6133C191.457 13.6133 192.738 14.1602 193.691 15.2539C194.645 16.3477 195.121 17.8047 195.121 19.625V20.2812H185.992V20.375C185.992 21.75 186.352 22.8398 187.07 23.6445C187.789 24.4414 188.758 24.8398 189.977 24.8398C190.875 24.8398 191.633 24.6289 192.25 24.207C192.867 23.7852 193.262 23.2305 193.434 22.543ZM197.301 26V9.08984H198.848V26H197.301ZM201.379 17.0703C201.379 16.0625 201.785 15.2344 202.598 14.5859C203.418 13.9375 204.473 13.6133 205.762 13.6133C207.004 13.6133 208.031 13.9492 208.844 14.6211C209.664 15.2852 210.113 16.1523 210.191 17.2227H208.703C208.609 16.4961 208.297 15.9258 207.766 15.5117C207.242 15.0977 206.559 14.8906 205.715 14.8906C204.887 14.8906 204.211 15.0898 203.688 15.4883C203.172 15.8789 202.914 16.3789 202.914 16.9883C202.914 17.4883 203.102 17.8984 203.477 18.2188C203.852 18.5312 204.445 18.7891 205.258 18.9922L207.062 19.4258C208.281 19.7305 209.145 20.1289 209.652 20.6211C210.16 21.1133 210.414 21.7969 210.414 22.6719C210.414 23.7031 209.977 24.5508 209.102 25.2148C208.227 25.8711 207.102 26.1992 205.727 26.1992C204.422 26.1992 203.336 25.8672 202.469 25.2031C201.609 24.5391 201.129 23.668 201.027 22.5898H202.574C202.684 23.3164 203.023 23.8867 203.594 24.3008C204.172 24.7148 204.914 24.9219 205.82 24.9219C206.734 24.9219 207.469 24.7266 208.023 24.3359C208.578 23.9453 208.855 23.4297 208.855 22.7891C208.855 22.2578 208.684 21.8398 208.34 21.5352C208.004 21.2227 207.43 20.9688 206.617 20.7734L204.637 20.2812C203.535 20.0078 202.715 19.6094 202.176 19.0859C201.645 18.5547 201.379 17.8828 201.379 17.0703Z" fill="white"/>
<circle cx="17" cy="17" r="17" fill="url(#paint0_linear)"/>
<circle cx="26.6205" cy="17.4007" r="4.52036" transform="rotate(112.943 26.6205 17.4007)" fill="url(#paint1_linear)"/>
<circle cx="6.18455" cy="17.0343" r="2.36871" transform="rotate(-44.4139 6.18455 17.0343)" fill="url(#paint2_linear)"/>
<defs>
<linearGradient id="paint0_linear" x1="35.4783" y1="14.7826" x2="-1.47826" y2="28.8261" gradientUnits="userSpaceOnUse">
<stop stop-color="white"/>
<stop offset="1" stop-color="#F01B1B"/>
</linearGradient>
<linearGradient id="paint1_linear" x1="31.534" y1="16.811" x2="21.7071" y2="20.5453" gradientUnits="userSpaceOnUse">
<stop stop-color="white"/>
<stop offset="1" stop-color="#F01B1B"/>
</linearGradient>
<linearGradient id="paint2_linear" x1="8.75923" y1="16.7253" x2="3.60987" y2="18.6821" gradientUnits="userSpaceOnUse">
<stop stop-color="white"/>
<stop offset="1" stop-color="#F01B1B"/>
</linearGradient>
</defs>
</svg>
